<?xml version="1.0" encoding="UTF-8" standalone="no"?>
<!-- Generated by graphviz version 2.26.3 (20100126.1600)
 -->

<!-- Title: structs Pages: 1 -->

<svg
   xmlns:dc="http://purl.org/dc/elements/1.1/"
   xmlns:cc="http://creativecommons.org/ns#"
   xmlns:rdf="http://www.w3.org/1999/02/22-rdf-syntax-ns#"
   xmlns:svg="http://www.w3.org/2000/svg"
   xmlns="http://www.w3.org/2000/svg"
   xmlns:sodipodi="http://sodipodi.sourceforge.net/DTD/sodipodi-0.dtd"
   xmlns:inkscape="http://www.inkscape.org/namespaces/inkscape"
   width="674.84351"
   height="393.5"
   viewBox="0 0 539.8748 314.8"
   id="svg2"
   version="1.1"
   inkscape:version="0.47 r22583"
   sodipodi:docname="ast_with_layout.svg">
  <metadata
     id="metadata182">
    <rdf:RDF>
      <cc:Work
         rdf:about="">
        <dc:format>image/svg+xml</dc:format>
        <dc:type
           rdf:resource="http://purl.org/dc/dcmitype/StillImage" />
        <dc:title />
      </cc:Work>
    </rdf:RDF>
  </metadata>
  <defs
     id="defs180">
    <marker
       inkscape:stockid="Arrow1Lend"
       orient="auto"
       refY="0"
       refX="0"
       id="Arrow1Lend"
       style="overflow:visible">
      <path
         id="path4123"
         d="M 0,0 5,-5 -12.5,0 5,5 0,0 z"
         style="fill-rule:evenodd;stroke:#000000;stroke-width:1pt;marker-start:none"
         transform="matrix(-0.8,0,0,-0.8,-10,0)" />
    </marker>
    <inkscape:perspective
       sodipodi:type="inkscape:persp3d"
       inkscape:vp_x="0 : 223.75 : 1"
       inkscape:vp_y="0 : 1000 : 0"
       inkscape:vp_z="755 : 223.75 : 1"
       inkscape:persp3d-origin="377.5 : 149.16667 : 1"
       id="perspective184" />
  </defs>
  <sodipodi:namedview
     pagecolor="#ffffff"
     bordercolor="#666666"
     borderopacity="1"
     objecttolerance="10"
     gridtolerance="10"
     guidetolerance="10"
     inkscape:pageopacity="0"
     inkscape:pageshadow="2"
     inkscape:window-width="1920"
     inkscape:window-height="1139"
     id="namedview178"
     showgrid="false"
     inkscape:zoom="1.1351955"
     inkscape:cx="380.28074"
     inkscape:cy="208.98994"
     inkscape:window-x="-4"
     inkscape:window-y="38"
     inkscape:window-maximized="1"
     inkscape:current-layer="svg2" />
  <polygon
     points="251,-244 251,-244 251,-265 325,-265 325,-244 "
     id="polygon39"
     style="fill:#ffe4c4;stroke:none;stroke-linejoin:miter"
     transform="translate(-42.1,359.9)" />
  <polygon
     points="251,-244 251,-244 251,-265 325,-265 325,-244 "
     id="polygon41"
     style="fill:none;stroke:none;stroke-linejoin:miter"
     transform="translate(-42.1,359.9)" />
  <text
     x="213.10472"
     y="110.07645"
     font-size="14.00"
     id="text43"
     style="font-size:14px;font-style:normal;font-variant:normal;font-weight:normal;font-stretch:normal;text-anchor:start;font-family:Verdana;-inkscape-font-specification:Verdana;stroke-linejoin:miter">ClassDef</text>
  <polygon
     points="251,-164 251,-164 251,-185 325,-185 325,-164 "
     id="polygon57"
     style="fill:#ffe4c4;stroke:none;stroke-linejoin:miter"
     transform="translate(36.3,343.9)" />
  <text
     x="291.5047"
     y="174.07645"
     font-size="14.00"
     id="text61"
     style="font-size:14px;font-style:normal;font-variant:normal;font-weight:normal;font-stretch:normal;text-anchor:start;font-family:Verdana;-inkscape-font-specification:Verdana;stroke-linejoin:miter">Template</text>
  <polygon
     points="320,-105 377,-105 377,-84 320,-84 320,-84 "
     id="polygon117"
     style="fill:#ffe4c4;stroke:none;stroke-linejoin:miter"
     transform="translate(36.3,311.9)" />
  <polygon
     points="320,-105 377,-105 377,-84 320,-84 320,-84 "
     id="polygon119"
     style="fill:none;stroke:none;stroke-linejoin:miter"
     transform="translate(36.3,311.9)" />
  <text
     x="360.5047"
     y="222.07616"
     font-size="14.00"
     id="text121"
     style="font-size:14px;font-style:normal;font-variant:normal;font-weight:normal;font-stretch:normal;text-anchor:start;font-family:Verdana;-inkscape-font-specification:Verdana;stroke-linejoin:miter">ValDef</text>
  <polygon
     points="311,-4 311,-4 311,-25 385,-25 385,-4 "
     id="polygon163"
     style="fill:#ffe4c4;stroke:none;stroke-linejoin:miter"
     transform="translate(116.3,292.7)" />
  <polygon
     points="311,-4 311,-4 311,-25 385,-25 385,-4 "
     id="polygon165"
     style="fill:none;stroke:none;stroke-linejoin:miter"
     transform="translate(116.3,292.7)" />
  <text
     x="431.5047"
     y="282.87613"
     font-size="14.00"
     id="text167"
     style="font-size:14px;font-style:normal;font-variant:normal;font-weight:normal;font-stretch:normal;text-anchor:start;font-family:Verdana;-inkscape-font-specification:Verdana;stroke-linejoin:miter">TypeTree</text>
  <polygon
     style="fill:#ffe4c4;stroke:none;stroke-linejoin:miter"
     id="polygon3111"
     points="285,-324 195,-324 195,-324 195,-345 285,-345 "
     transform="translate(-70.9,364.7)" />
  <polygon
     style="fill:none;stroke:none;stroke-linejoin:miter"
     id="polygon3113"
     points="195,-345 285,-345 285,-324 195,-324 195,-324 "
     transform="translate(-70.9,364.7)" />
  <text
     style="font-size:14px;font-style:normal;font-variant:normal;font-weight:normal;font-stretch:normal;text-anchor:start;stroke-linejoin:miter;font-family:Verdana;-inkscape-font-specification:Verdana"
     id="text3115"
     font-size="14.00"
     y="34.876446"
     x="128.30472">PackageDef</text>
  <polygon
     points="285,-324 195,-324 195,-324 195,-345 285,-345 "
     id="polygon3922"
     style="fill:#e1ffc7;fill-opacity:1;stroke:none"
     transform="matrix(0.79641295,0,0,1,-103.02435,364.7)" />
  <text
     x="55.599998"
     y="33.466999"
     font-size="14.00"
     id="text3924"
     style="font-size:14px;text-anchor:start;stroke-linejoin:miter;font-family:'Courier,monospace'">package</text>
  <polygon
     points="177,-265 226,-265 226,-244 177,-244 177,-244 "
     id="polygon21"
     style="fill:#ffe4c4;stroke:none;stroke-linejoin:miter"
     transform="translate(-166.9,332.7)" />
  <polygon
     points="177,-265 226,-265 226,-244 177,-244 177,-244 "
     id="polygon23"
     style="fill:none;stroke:none;stroke-linejoin:miter"
     transform="translate(-166.9,332.7)" />
  <text
     x="14.304725"
     y="82.87645"
     font-size="14.00"
     id="text25"
     style="font-size:14px;font-style:normal;font-variant:normal;font-weight:normal;font-stretch:normal;text-anchor:start;font-family:Verdana;-inkscape-font-specification:Verdana;stroke-linejoin:miter">Ident</text>
  <polygon
     style="fill:#afcaf5;fill-opacity:1;stroke:none;stroke-width:1.84028982999999990;stroke-linejoin:miter"
     id="polygon3133"
     points="177,-244 177,-265 226,-265 226,-244 177,-244 "
     transform="matrix(0.29527559,0,0,1,-27.763779,359.9)" />
  <text
     style="font-size:14px;text-anchor:start;font-family:'Courier,monospace';stroke-linejoin:miter"
     id="text3135"
     font-size="14.00"
     y="108.66682"
     x="27.999973">a</text>
  <g
     id="g4098"
     transform="translate(3.2,-12.8)"
     style="stroke-linejoin:miter;stroke:none">
    <polygon
       points="195,-324 195,-345 285,-345 285,-324 195,-324 "
       id="polygon3935"
       style="fill:#e1ffc7;fill-opacity:1;stroke:none;stroke-width:1.09398162000000010;stroke-linejoin:miter"
       transform="matrix(0.83556426,0,0,1,-107.63504,425.5)" />
    <text
       x="58.800003"
       y="94.266998"
       font-size="14.00"
       id="text3937"
       style="font-size:14px;text-anchor:start;font-family:'Courier,monospace';stroke-linejoin:miter;stroke:none">//TODO\n</text>
  </g>
  <g
     id="g4102"
     transform="translate(3.2,-12.8)"
     style="stroke-linejoin:miter;stroke:none">
    <g
       transform="translate(-73.130709,-9.510236)"
       id="g4018"
       style="stroke-linejoin:miter;stroke:none">
      <polygon
         points="195,-324 195,-324 195,-345 285,-345 285,-324 "
         id="polygon3985"
         style="fill:#e1ffc7;fill-opacity:1;stroke:none;stroke-width:0.77485084999999998;stroke-linejoin:miter"
         transform="matrix(1.6655731,0,0,1,-195.97493,462.26772)" />
      <text
         x="132.3118"
         y="131.03471"
         font-size="14.00"
         id="text3987"
         style="font-size:14px;text-anchor:start;font-family:'Courier,monospace';stroke-linejoin:miter;stroke:none">// myclass\nclass</text>
    </g>
  </g>
  <polygon
     points="195,-345 285,-345 285,-324 195,-324 195,-324 "
     id="polygon4040"
     style="fill:#afcaf5;fill-opacity:1;stroke:none"
     transform="matrix(0.71027993,0,0,1,73.5954,467.1)" />
  <text
     x="215.6006"
     y="135.86697"
     font-size="14.00"
     id="text4042"
     style="font-size:14px;text-anchor:start;stroke:none;font-family:'Courier,monospace'">MyClass</text>
  <polygon
     transform="matrix(0.18565176,0,0,1,235.09789,503.9)"
     style="fill:#e1ffc7;fill-opacity:1;stroke:none;stroke-width:2.32086777999999994;stroke-linejoin:miter"
     id="polygon4050"
     points="195,-324 195,-345 285,-345 285,-324 195,-324 " />
  <text
     style="font-size:14px;text-anchor:start;font-family:'Courier,monospace';stroke-linejoin:miter"
     id="text4052"
     font-size="14.00"
     y="172.66678"
     x="273.20065">(</text>
  <g
     transform="translate(59.5,12.3)"
     id="g4056"
     style="stroke-linejoin:miter;stroke:none">
    <polygon
       points="285,-324 195,-324 195,-324 195,-345 285,-345 "
       id="polygon4058"
       style="fill:#e1ffc7;fill-opacity:1;stroke:none;stroke-width:1.18654763999999990;stroke-linejoin:miter"
       transform="matrix(0.71027993,0,0,1,162.8954,491.6)" />
    <text
       x="304.9006"
       y="160.36697"
       font-size="14.00"
       id="text4060"
       style="font-size:14px;text-anchor:start;font-family:'Courier,monospace';stroke-linejoin:miter;stroke:none">)\n{\n}</text>
  </g>
  <polygon
     points="195,-324 195,-324 195,-345 285,-345 285,-324 "
     id="polygon4064"
     style="fill:#e1ffc7;fill-opacity:1;stroke:none;stroke-width:0.88054639000000001;stroke-linejoin:miter"
     transform="matrix(1.28972,0,0,1,161.30931,551.9)" />
  <text
     x="416.30533"
     y="220.66681"
     font-size="14.00"
     id="text4066"
     style="font-size:14px;text-anchor:start;font-family:'Courier,monospace';stroke-linejoin:miter">/* the int */</text>
  <polygon
     transform="matrix(0.28400893,0,0,1,326.23042,499.1)"
     points="226,-244 177,-244 177,-244 177,-265 226,-265 "
     id="polygon4088"
     style="fill:#afcaf5;fill-opacity:1;stroke:none" />
  <text
     x="380.00003"
     y="247.8669"
     font-size="14.00"
     id="text4090"
     style="font-size:14px;text-anchor:start;font-family:'Courier,monospace';stroke-linejoin:miter">a</text>
  <polygon
     transform="matrix(0.29527559,0,0,1,361.03622,532.7)"
     points="177,-265 226,-265 226,-244 177,-244 177,-244 "
     id="polygon4096"
     style="fill:#e1ffc7;fill-opacity:1;stroke:none;stroke-width:1.84028982999999990;stroke-linejoin:miter" />
  <path
     style="fill:none;stroke:#000000;stroke-width:0.80000000999999998px;stroke-linecap:butt;stroke-linejoin:miter;stroke-opacity:1;marker-end:url(#Arrow1Lend)"
     d="M 147.72599,45.903939 93.462208,61.407877"
     id="path4115" />
  <path
     id="path4567"
     d="m 164.52599,45.90394 69.57717,40.87402"
     style="fill:none;stroke:#000000;stroke-width:0.80000000999999998px;stroke-linecap:butt;stroke-linejoin:miter;stroke-opacity:1;marker-end:url(#Arrow1Lend)" />
  <path
     style="fill:none;stroke:#000000;stroke-width:0.80000006999999984px;stroke-linecap:butt;stroke-linejoin:miter;stroke-opacity:1;marker-end:url(#Arrow1Lend)"
     d="m 279.39608,120.60472 32.22677,33.12205"
     id="path4569" />
  <path
     id="path4571"
     d="m 359.39608,184.60472 18.83701,17.61811"
     style="fill:none;stroke:#000000;stroke-width:0.80000006999999984px;stroke-linecap:butt;stroke-linejoin:miter;stroke-opacity:1;marker-end:url(#Arrow1Lend)" />
  <path
     style="fill:none;stroke:#000000;stroke-width:0.80000006999999984px;stroke-linecap:butt;stroke-linejoin:miter;stroke-opacity:1;marker-end:url(#Arrow1Lend)"
     d="m 407.39606,232.60472 32.9315,28.8937"
     id="path4573" />
  <path
     style="fill:none;stroke:#000000;stroke-width:0.80000000999999998px;stroke-linecap:butt;stroke-linejoin:miter;stroke-opacity:1"
     d="m 32.273349,88.66328 0,5.48147"
     id="path4575" />
  <path
     id="path4590"
     d="m 240.27335,115.86328 0,5.48147"
     style="fill:none;stroke:#000000;stroke-width:0.80000000999999998px;stroke-linecap:butt;stroke-linejoin:miter;stroke-opacity:1" />
  <path
     style="fill:none;stroke:#000000;stroke-width:0.80000000999999998px;stroke-linecap:butt;stroke-linejoin:miter;stroke-opacity:1"
     d="m 387.47335,227.86328 0,5.48147"
     id="path4592" />
  <polygon
     style="fill:#e1ffc7;fill-opacity:1;stroke:none;stroke-width:1.84028982999999990;stroke-linejoin:miter"
     id="polygon3652"
     points="177,-265 226,-265 226,-244 177,-244 177,-244 "
     transform="matrix(0.29527559,0,0,1,361.03622,532.7)" />
  <polygon
     style="fill:#e1ffc7;fill-opacity:1;stroke:none"
     id="polygon3656"
     points="226,-265 226,-244 177,-244 177,-244 177,-265 "
     transform="matrix(0.21790586,0,0,1,351.2485,499.1)" />
  <text
     style="font-size:14px;text-anchor:start;stroke-linejoin:miter;font-family:'Courier,monospace'"
     id="text3658"
     font-size="14.00"
     y="247.86688"
     x="391.20007">:</text>
</svg>
