<?xml version="1.0" encoding="UTF-8" standalone="no"?>
<!-- Created with Inkscape (http://www.inkscape.org/) -->

<svg
   xmlns:dc="http://purl.org/dc/elements/1.1/"
   xmlns:cc="http://creativecommons.org/ns#"
   xmlns:rdf="http://www.w3.org/1999/02/22-rdf-syntax-ns#"
   xmlns:svg="http://www.w3.org/2000/svg"
   xmlns="http://www.w3.org/2000/svg"
   xmlns:sodipodi="http://sodipodi.sourceforge.net/DTD/sodipodi-0.dtd"
   xmlns:inkscape="http://www.inkscape.org/namespaces/inkscape"
   id="svg2"
   version="1.1"
   inkscape:version="0.47 r22583"
   width="1314.9613"
   height="130"
   xml:space="preserve"
   sodipodi:docname="refactoring-flow.svg"><metadata
     id="metadata8"><rdf:RDF><cc:Work
         rdf:about=""><dc:format>image/svg+xml</dc:format><dc:type
           rdf:resource="http://purl.org/dc/dcmitype/StillImage" /><dc:title /></cc:Work></rdf:RDF></metadata><defs
     id="defs6"><inkscape:perspective
       sodipodi:type="inkscape:persp3d"
       inkscape:vp_x="0 : 0.5 : 1"
       inkscape:vp_y="0 : 1000 : 0"
       inkscape:vp_z="1 : 0.5 : 1"
       inkscape:persp3d-origin="0.5 : 0.33333333 : 1"
       id="perspective10" /><clipPath
       clipPathUnits="userSpaceOnUse"
       id="clipPath18"><path
         d="m 0,0 1104,0 0,174 L 0,174 0,0 z"
         id="path20" /></clipPath><clipPath
       clipPathUnits="userSpaceOnUse"
       id="clipPath22"><path
         d="m 36,35 1033,0 0,103 -1033,0 0,-103 z"
         id="path24" /></clipPath></defs><sodipodi:namedview
     pagecolor="#ffffff"
     bordercolor="#666666"
     borderopacity="1"
     objecttolerance="10"
     gridtolerance="10"
     guidetolerance="10"
     inkscape:pageopacity="0"
     inkscape:pageshadow="2"
     inkscape:window-width="1920"
     inkscape:window-height="1139"
     id="namedview4"
     showgrid="false"
     inkscape:zoom="0.8453125"
     inkscape:cx="635.14099"
     inkscape:cy="34.547609"
     inkscape:window-x="-4"
     inkscape:window-y="38"
     inkscape:window-maximized="1"
     inkscape:current-layer="g12" /><g
     id="g12"
     inkscape:groupmode="layer"
     inkscape:label="refactoring-flow"
     transform="matrix(1.25,0,0,-1.25,5.625,114.375)"><g
   id="g16"
   transform="translate(-40,-47)" /><g
   id="g30"
   transform="translate(-40,-47)" /><path
   id="path36"
   style="fill:#ffffff;fill-opacity:1;fill-rule:nonzero;stroke:#ffffff;stroke-width:1;stroke-linecap:butt;stroke-linejoin:miter;stroke-miterlimit:10;stroke-opacity:1;stroke-dasharray:none"
   d="m -4,-12 0,103 1033,0 0,-103 -1033,0 z" /><path
   id="path38"
   style="fill:none;stroke:#000000;stroke-width:1;stroke-linecap:butt;stroke-linejoin:miter;stroke-miterlimit:10;stroke-opacity:1;stroke-dasharray:none"
   d="M 84,1 84,79 350,79 350,1 84,1 z" /><text
   id="text40"
   transform="scale(1,-1)"
   x="169.5"
   y="-62.398441"><tspan
     id="tspan42"
     sodipodi:role="line"
     style="font-size:14.00024414px;font-variant:normal;font-weight:normal;writing-mode:lr-tb;fill:#000000;fill-opacity:1;fill-rule:nonzero;stroke:none;font-family:Verdana;-inkscape-font-specification:Verdana"
     x="169.5"
     y="-62.398441">Scala compiler</tspan></text>

<path
   id="path44"
   style="fill:none;stroke:#000000;stroke-width:1;stroke-linecap:butt;stroke-linejoin:miter;stroke-miterlimit:10;stroke-opacity:1;stroke-dasharray:none"
   d="m 470.00001,1 0,78 414.6926,0 0,-78 -414.6926,0 z" /><text
   id="text46"
   transform="scale(1,-1)"
   x="615.30017"
   y="-62.398441"><tspan
     id="tspan48"
     sodipodi:role="line"
     y="-62.398441"
     x="615.30017 621.2923 629.52441 634.77454 643.00665 650.49677 655.74689 664.73505 670.72711 675.22119 684.20935"
     style="font-size:14.00024414px;font-variant:normal;font-weight:normal;writing-mode:lr-tb;fill:#000000;fill-opacity:1;fill-rule:nonzero;stroke:none;font-family:Verdana;-inkscape-font-specification:Verdana">refactoring library</tspan></text>

<path
   id="path50"
   style="fill:#add8e6;fill-opacity:1;fill-rule:nonzero;stroke:#000000;stroke-width:1;stroke-linecap:butt;stroke-linejoin:miter;stroke-miterlimit:10;stroke-opacity:1;stroke-dasharray:none"
   d="M 55.074,27 C 55.074,16.848 42.953,8.613 28,8.613 13.047,8.613 0.926,16.848 0.926,27 0.926,37.152 13.047,45.387 28,45.387 42.953,45.387 55.074,37.152 55.074,27 z" /><text
   id="text52"
   transform="scale(1,-1)"
   x="16.5"
   y="-23.398438"><tspan
     id="tspan54"
     sodipodi:role="line"
     y="-23.398438"
     x="16.5 21.736092 26.230169 30.724247"
     style="font-size:14.00024414px;font-variant:normal;font-weight:normal;writing-mode:lr-tb;fill:#000000;fill-opacity:1;fill-rule:nonzero;stroke:none;font-family:Verdana;-inkscape-font-specification:Verdana">file</tspan></text>

<path
   id="path56"
   style="fill:#ffe4c4;fill-opacity:1;fill-rule:nonzero;stroke:#000000;stroke-width:1;stroke-linecap:butt;stroke-linejoin:miter;stroke-miterlimit:10;stroke-opacity:1;stroke-dasharray:none"
   d="m 92,9 0,36 62,0 0,-36 -62,0 z" /><text
   id="text58"
   transform="scale(1,-1)"
   x="100"
   y="-23.398438"><tspan
     id="tspan60"
     sodipodi:role="line"
     y="-23.398438"
     x="100 109.00216 117.2343 123.2264 130.71654 138.96268"
     style="font-size:14.00024414px;font-variant:normal;font-weight:normal;writing-mode:lr-tb;fill:#000000;fill-opacity:1;fill-rule:nonzero;stroke:none;font-family:Verdana;-inkscape-font-specification:Verdana">parser</tspan></text>

<path
   id="path62"
   style="fill:none;stroke:#000000;stroke-width:1;stroke-linecap:butt;stroke-linejoin:miter;stroke-miterlimit:10;stroke-opacity:1;stroke-dasharray:none"
   d="m 55.734,27 c 8.11,0 17.153,0 25.914,0" /><path
   id="path64"
   style="fill:#000000;fill-opacity:1;fill-rule:nonzero;stroke:#000000;stroke-width:1;stroke-linecap:butt;stroke-linejoin:miter;stroke-miterlimit:10;stroke-opacity:1;stroke-dasharray:none"
   d="M 74,30.5 84,27 74,23.5 l 0,7 z" /><path
   id="path66"
   style="fill:#add8e6;fill-opacity:1;fill-rule:nonzero;stroke:#000000;stroke-width:1;stroke-linecap:butt;stroke-linejoin:miter;stroke-miterlimit:10;stroke-opacity:1;stroke-dasharray:none"
   d="m 1046.969,27 c 0,-10.152 -29.535,-18.387 -65.969,-18.387 -36.434,0 -65.969,8.235 -65.969,18.387 0,10.152 29.535,18.387 65.969,18.387 36.434,0 65.969,-8.235 65.969,-18.387 z" /><text
   id="text68"
   transform="scale(1,-1)"
   x="941.99963"
   y="-23.398438"><tspan
     id="tspan70"
     sodipodi:role="line"
     y="-23.398438"
     x="941.99963 949.48975 958.47791 966.71008 975.69824 984.70038 992.94653 998.18262 1005.6728 1013.9191"
     style="font-size:14.00024414px;font-variant:normal;font-weight:normal;writing-mode:lr-tb;fill:#000000;fill-opacity:1;fill-rule:nonzero;stroke:none;font-family:Verdana;-inkscape-font-specification:Verdana">change set</tspan></text>

<path
   id="path72"
   style="fill:#add8e6;fill-opacity:1;fill-rule:nonzero;stroke:#000000;stroke-width:1;stroke-linecap:butt;stroke-linejoin:miter;stroke-miterlimit:10;stroke-opacity:1;stroke-dasharray:none"
   d="M 441.82,27 C 441.82,16.848 427.574,8.613 410,8.613 c -17.574,0 -31.82,8.235 -31.82,18.387 0,10.152 14.246,18.387 31.82,18.387 17.574,0 31.82,-8.235 31.82,-18.387 z" /><text
   id="text74"
   transform="scale(1,-1)"
   x="395.5"
   y="-23.398438"><tspan
     id="tspan76"
     sodipodi:role="line"
     y="-23.398438"
     x="395.5 405.24417 414.98834"
     style="font-size:14.00024414px;font-variant:normal;font-weight:normal;writing-mode:lr-tb;fill:#000000;fill-opacity:1;fill-rule:nonzero;stroke:none;font-family:Verdana;-inkscape-font-specification:Verdana">AST</tspan></text>

<path
   id="path78"
   style="fill:#ffe4c4;fill-opacity:1;fill-rule:nonzero;stroke:#000000;stroke-width:1;stroke-linecap:butt;stroke-linejoin:miter;stroke-miterlimit:10;stroke-opacity:1;stroke-dasharray:none"
   d="m 478,9 0,36 74,0 0,-36 -74,0 z" /><text
   id="text80"
   transform="scale(1,-1)"
   x="486"
   y="-23.398438"><tspan
     id="tspan82"
     sodipodi:role="line"
     y="-23.398438"
     x="486 494.24615 503.23431 511.46643 515.96051 524.20667 531.69678 536.19086"
     style="font-size:14.00024414px;font-variant:normal;font-weight:normal;writing-mode:lr-tb;fill:#000000;fill-opacity:1;fill-rule:nonzero;stroke:none;font-family:Verdana;-inkscape-font-specification:Verdana">analysis</tspan></text>

<path
   id="path84"
   style="fill:none;stroke:#000000;stroke-width:1;stroke-linecap:butt;stroke-linejoin:miter;stroke-miterlimit:10;stroke-opacity:1;stroke-dasharray:none"
   d="m 442.074,27 c 8.149,0 17.078,0 25.805,0" /><path
   id="path86"
   style="fill:#000000;fill-opacity:1;fill-rule:nonzero;stroke:#000000;stroke-width:1;stroke-linecap:butt;stroke-linejoin:miter;stroke-miterlimit:10;stroke-opacity:1;stroke-dasharray:none"
   d="m 460,30.5 10,-3.5 -10,-3.5 0,7 z" /><path
   id="path88"
   style="fill:#ffe4c4;fill-opacity:1;fill-rule:nonzero;stroke:#000000;stroke-width:1;stroke-linecap:butt;stroke-linejoin:miter;stroke-miterlimit:10;stroke-opacity:1;stroke-dasharray:none"
   d="m 190,9 0,36 62,0 0,-36 -62,0 z" /><text
   id="text90"
   transform="scale(1,-1)"
   x="198"
   y="-23.398438"><tspan
     id="tspan92"
     sodipodi:role="line"
     y="-23.398438"
     x="198 206.98816 215.2343 228.71654 236.96268"
     style="font-size:14.00024414px;font-variant:normal;font-weight:normal;writing-mode:lr-tb;fill:#000000;fill-opacity:1;fill-rule:nonzero;stroke:none;font-family:Verdana;-inkscape-font-specification:Verdana">namer</tspan></text>

<path
   id="path94"
   style="fill:none;stroke:#000000;stroke-width:1;stroke-linecap:butt;stroke-linejoin:miter;stroke-miterlimit:10;stroke-opacity:1;stroke-dasharray:none"
   d="m 154.008,27 c 8.133,0 17.035,0 25.613,0" /><path
   id="path96"
   style="fill:#000000;fill-opacity:1;fill-rule:nonzero;stroke:#000000;stroke-width:1;stroke-linecap:butt;stroke-linejoin:miter;stroke-miterlimit:10;stroke-opacity:1;stroke-dasharray:none"
   d="m 179.859,30.5 10,-3.5 -10,-3.5 0,7 z" /><path
   id="path98"
   style="fill:#ffe4c4;fill-opacity:1;fill-rule:nonzero;stroke:#000000;stroke-width:1;stroke-linecap:butt;stroke-linejoin:miter;stroke-miterlimit:10;stroke-opacity:1;stroke-dasharray:none"
   d="m 288,9 0,36 54,0 0,-36 -54,0 z" /><text
   id="text100"
   transform="scale(1,-1)"
   x="296.5"
   y="-23.398438"><tspan
     id="tspan102"
     sodipodi:role="line"
     y="-23.398438"
     x="296.5 301.75009 309.98224 318.98441 327.23053"
     style="font-size:14.00024414px;font-variant:normal;font-weight:normal;writing-mode:lr-tb;fill:#000000;fill-opacity:1;fill-rule:nonzero;stroke:none;font-family:Verdana;-inkscape-font-specification:Verdana">typer</tspan></text>

<path
   id="path104"
   style="fill:none;stroke:#000000;stroke-width:1;stroke-linecap:butt;stroke-linejoin:miter;stroke-miterlimit:10;stroke-opacity:1;stroke-dasharray:none"
   d="m 252.039,27 c 8.211,0 17.164,0 25.668,0" /><path
   id="path106"
   style="fill:#000000;fill-opacity:1;fill-rule:nonzero;stroke:#000000;stroke-width:1;stroke-linecap:butt;stroke-linejoin:miter;stroke-miterlimit:10;stroke-opacity:1;stroke-dasharray:none"
   d="m 277.785,30.5 10,-3.5 -10,-3.5 0,7 z" /><path
   id="path108"
   style="fill:none;stroke:#000000;stroke-width:1;stroke-linecap:butt;stroke-linejoin:miter;stroke-miterlimit:10;stroke-opacity:1;stroke-dasharray:none"
   d="m 349.84,27 c 5.73,0 11.726,0 17.617,0" /><path
   id="path110"
   style="fill:#000000;fill-opacity:1;fill-rule:nonzero;stroke:#000000;stroke-width:1;stroke-linecap:butt;stroke-linejoin:miter;stroke-miterlimit:10;stroke-opacity:1;stroke-dasharray:none"
   d="m 367.73,30.5 10,-3.5 -10,-3.5 0,7 z" /><path
   id="path112"
   style="fill:#ffe4c4;fill-opacity:1;fill-rule:nonzero;stroke:#000000;stroke-width:1;stroke-linecap:butt;stroke-linejoin:miter;stroke-miterlimit:10;stroke-opacity:1;stroke-dasharray:none"
   d="m 588,9 0,36 122,0 0,-36 -122,0 z" /><text
   id="text114"
   transform="scale(1,-1)"
   x="596"
   y="-23.398438"><tspan
     id="tspan116"
     sodipodi:role="line"
     y="-23.398438"
     x="596 601.25012 607.24219 615.47437 624.46252 631.95264 637.2027 646.19086 652.16901 665.66522 673.91138 679.16144 683.65552 692.64368"
     style="font-size:14.00024414px;font-variant:normal;font-weight:normal;writing-mode:lr-tb;fill:#000000;fill-opacity:1;fill-rule:nonzero;stroke:none;font-family:Verdana;-inkscape-font-specification:Verdana">transformation</tspan></text>

<path
   id="path118"
   style="fill:none;stroke:#000000;stroke-width:1;stroke-linecap:butt;stroke-linejoin:miter;stroke-miterlimit:10;stroke-opacity:1;stroke-dasharray:none"
   d="m 552.328,27 c 8.043,0 16.805,0 25.66,0" /><path
   id="path120"
   style="fill:#000000;fill-opacity:1;fill-rule:nonzero;stroke:#000000;stroke-width:1;stroke-linecap:butt;stroke-linejoin:miter;stroke-miterlimit:10;stroke-opacity:1;stroke-dasharray:none"
   d="m 577.992,30.5 10,-3.5 -10,-3.5 0,7 z" /><path
   id="path132"
   style="fill:none;stroke:#000000;stroke-width:0.99999994;stroke-linecap:butt;stroke-linejoin:miter;stroke-miterlimit:10;stroke-opacity:1;stroke-dasharray:none"
   d="m 870.50675,26.999998 c 10.65068,0 21.54384,0 32.40711,0" /><path
   id="path122"
   style="fill:#ffe4c4;fill-opacity:1;fill-rule:nonzero;stroke:#000000;stroke-width:0.99999994;stroke-linecap:butt;stroke-linejoin:miter;stroke-miterlimit:10;stroke-opacity:1;stroke-dasharray:none"
   d="m 746.49997,9 0,36 126.63771,0 0,-36 -126.63771,0 z" /><text
   id="text124"
   transform="scale(1,-1)"
   x="754.5"
   y="-23.398438"><tspan
     y="-23.398438"
     x="754.5"
     id="tspan126"
     sodipodi:role="line"
     style="font-size:14.00024414px;font-variant:normal;font-weight:normal;writing-mode:lr-tb;fill:#000000;fill-opacity:1;fill-rule:nonzero;stroke:none;font-family:Verdana;-inkscape-font-specification:Verdana">code generation</tspan></text>

<path
   id="path128"
   style="fill:none;stroke:#000000;stroke-width:1;stroke-linecap:butt;stroke-linejoin:miter;stroke-miterlimit:10;stroke-opacity:1;stroke-dasharray:none"
   d="m 710.418,27 c 8.473,0 17.195,0 25.715,0" /><path
   id="path130"
   style="fill:#000000;fill-opacity:1;fill-rule:nonzero;stroke:#000000;stroke-width:1;stroke-linecap:butt;stroke-linejoin:miter;stroke-miterlimit:10;stroke-opacity:1;stroke-dasharray:none"
   d="m 736.391,30.5 10,-3.5 -10,-3.5 0,7 z" /><path
   id="path134"
   style="fill:#000000;fill-opacity:1;fill-rule:nonzero;stroke:#000000;stroke-width:1;stroke-linecap:butt;stroke-linejoin:miter;stroke-miterlimit:10;stroke-opacity:1;stroke-dasharray:none"
   d="m 902.72,30.5 10,-3.5 -10,-3.5 0,7 z" /><g
   id="g136"
   transform="translate(-40,-47)" /></g></svg>